<svg width="24" height="24" viewBox="0 0 24 24" fill="none" xmlns="http://www.w3.org/2000/svg">
<circle cx="12" cy="12" r="12" fill="#1B3543"/>
<path d="M16.7365 7.96993C16.8047 7.9003 16.8862 7.84498 16.9761 7.80722C17.0659 7.76945 17.1625 7.75 17.26 7.75C17.3575 7.75 17.454 7.76945 17.5439 7.80722C17.6338 7.84498 17.7152 7.9003 17.7835 7.96993C18.0695 8.25893 18.0735 8.72593 17.7935 9.01993L11.8805 16.0099C11.8133 16.0837 11.7319 16.1429 11.641 16.1841C11.5502 16.2252 11.452 16.2474 11.3523 16.2493C11.2526 16.2511 11.1536 16.2327 11.0613 16.1949C10.969 16.1572 10.8853 16.1011 10.8155 16.0299L7.21747 12.3839C7.07871 12.2424 7.00098 12.0521 7.00098 11.8539C7.00098 11.6557 7.07871 11.4654 7.21747 11.3239C7.28571 11.2543 7.36717 11.199 7.45706 11.1612C7.54695 11.1235 7.64347 11.104 7.74097 11.104C7.83847 11.104 7.93499 11.1235 8.02488 11.1612C8.11477 11.199 8.19622 11.2543 8.26447 11.3239L11.3165 14.4169L16.7165 7.99193C16.7227 7.98421 16.7294 7.97686 16.7365 7.96993Z" fill="#E0FFFF"/>
</svg>
