<svg width="24" height="24" viewBox="0 0 24 24" fill="none" xmlns="http://www.w3.org/2000/svg">
<circle cx="12" cy="12" r="12" fill="#E0FFFF"/>
<g filter="url(#filter0_d_0_1)">
<path d="M12.7703 14.26H11.2303L10.4303 8.76V4.76H13.5903V8.76L12.7703 14.26ZM11.9903 19.24C11.4836 19.24 11.0703 19.0867 10.7503 18.78C10.4303 18.46 10.2703 18.0533 10.2703 17.56C10.2703 17.0667 10.4303 16.6667 10.7503 16.36C11.0703 16.04 11.4836 15.88 11.9903 15.88C12.497 15.88 12.9103 16.04 13.2303 16.36C13.5636 16.6667 13.7303 17.0667 13.7303 17.56C13.7303 18.0533 13.5636 18.46 13.2303 18.78C12.9103 19.0867 12.497 19.24 11.9903 19.24Z" fill="#214153"/>
</g>
<defs>
<filter id="filter0_d_0_1" x="-14.7295" y="-10.24" width="53.46" height="64.48" filterUnits="userSpaceOnUse" color-interpolation-filters="sRGB">
<feFlood flood-opacity="0" result="BackgroundImageFix"/>
<feColorMatrix in="SourceAlpha" type="matrix" values="0 0 0 0 0 0 0 0 0 0 0 0 0 0 0 0 0 0 127 0" result="hardAlpha"/>
<feMorphology radius="5" operator="dilate" in="SourceAlpha" result="effect1_dropShadow_0_1"/>
<feOffset dy="10"/>
<feGaussianBlur stdDeviation="10"/>
<feComposite in2="hardAlpha" operator="out"/>
<feColorMatrix type="matrix" values="0 0 0 0 0 0 0 0 0 0 0 0 0 0 0 0 0 0 0.15 0"/>
<feBlend mode="normal" in2="BackgroundImageFix" result="effect1_dropShadow_0_1"/>
<feBlend mode="normal" in="SourceGraphic" in2="effect1_dropShadow_0_1" result="shape"/>
</filter>
</defs>
</svg>
