<svg width="52" height="52" viewBox="0 0 52 52" fill="none" xmlns="http://www.w3.org/2000/svg">
<circle cx="26" cy="26" r="26" fill="#1B3543"/>
<path d="M26 14C27.5913 14 29.1174 14.6321 30.2426 15.7574C31.3679 16.8826 32 18.4087 32 20C32 21.5913 31.3679 23.1174 30.2426 24.2426C29.1174 25.3679 27.5913 26 26 26C24.4087 26 22.8826 25.3679 21.7574 24.2426C20.6321 23.1174 20 21.5913 20 20C20 18.4087 20.6321 16.8826 21.7574 15.7574C22.8826 14.6321 24.4087 14 26 14M26 29C32.63 29 38 31.685 38 35V38H14V35C14 31.685 19.37 29 26 29Z" fill="#E0FFFF"/>
</svg>
